<svg width="90" height="90" viewBox="0 0 90 90" fill="none" xmlns="http://www.w3.org/2000/svg">
<path d="M90 45C90 69.8528 69.8528 90 45 90C20.1472 90 0 69.8528 0 45C0 20.1472 20.1472 0 45 0C69.8528 0 90 20.1472 90 45Z" fill="#F6EEEE"/>
<g clip-path="url(#clip0_1043_15)">
<path d="M45.4548 57.9958C44.1125 57.472 45.0642 56.1638 46.4967 56.1843C48.1542 56.2079 48.793 57.4723 47.2841 58.1315C47.1604 58.1855 47.0372 58.2338 46.9161 58.275C46.8226 58.2753 47.0039 58.2783 46.9161 58.275C46.3295 58.2523 45.847 58.1489 45.4548 57.9958Z" fill="black"/>
<path fill-rule="evenodd" clip-rule="evenodd" d="M30.06 32.0954C27.3095 31.4929 26.9649 42.0528 27.1402 47.4684C26.9284 50.7553 27.1033 53.5751 27.4884 55.9357C27.9017 58.4695 28.557 60.4744 29.2358 61.96C29.8215 63.2418 30.4246 64.1372 30.905 64.6524C30.9439 64.6942 30.9883 64.7262 31.0383 64.7516C42.8511 70.7648 56.7748 67.443 62.3385 64.9997C62.4009 64.9722 62.3079 64.925 62.3765 64.9286C62.4134 64.9305 62.4478 64.9316 62.4559 64.9243C63.0293 64.5358 63.6767 63.3381 64.1164 62.1363C64.7218 60.4821 65.1255 58.4086 65.3847 56.3156C65.7304 53.5244 65.8194 50.6986 65.7871 48.7869C65.7859 48.7643 65.4456 43.5776 65.4439 43.5549C65.1962 40.3365 64.8539 36.3781 64.5231 34.1766C64.5218 34.168 64.501 34.1533 64.4759 34.1372C64.4122 34.0965 64.5159 34.1165 64.4862 34.0471C63.9201 32.727 63.3955 32.3947 63.1578 32.3873C63.1312 32.3864 63.1062 32.3887 63.0802 32.3911L63.0608 32.3929C61.7529 32.5034 57.7474 37.4275 55.6381 40.2295C55.5954 40.2864 55.5432 40.3312 55.4854 40.3637C55.3346 40.4679 55.1289 40.4553 54.9738 40.3522C54.9695 40.3493 54.9649 40.3463 54.9603 40.3433C47.8633 35.7937 40.5113 38.194 37.311 40.1986C37.2854 40.2145 37.259 40.2281 37.2321 40.2391C37.2039 40.2513 37.1737 40.2628 37.1425 40.274C36.9445 40.3445 36.7605 40.2416 36.6311 40.0721C35.7093 38.8642 34.0218 36.6414 32.832 35.0327C31.5726 33.33 30.6001 32.4388 30.2129 32.1608C30.1968 32.1492 30.1104 32.1163 30.06 32.0954ZM47.284 58.1316C48.793 57.4724 48.1541 56.2079 46.4966 56.1843C45.0642 56.1638 44.1125 57.472 45.4547 57.9958C45.8469 58.1489 46.3294 58.2523 46.916 58.275C47.0372 58.2338 47.1604 58.1855 47.284 58.1316Z" fill="#C9C8C8"/>
<path d="M33.6418 54.3151C34.7667 53.098 37.8299 51.2223 41.0828 53.4565M51.4364 53.5417C52.8167 52.6334 56.2407 51.5577 58.8946 54.5229M61.5706 57.1728L65.3851 56.3154M65.3851 56.3154L68.8767 55.3933M65.3851 56.3154C65.1258 58.4084 64.7221 60.4819 64.1167 62.1361M65.3851 56.3154C65.7308 53.5242 65.8197 50.6984 65.7874 48.7867C65.7862 48.7641 65.4459 43.5773 65.4442 43.5547C65.1965 40.3363 64.8542 36.3779 64.5234 34.1764M60.7198 60.7135L64.1167 62.1361M64.1167 62.1361L66.4237 63.1256M64.1167 62.1361C63.677 63.3379 63.0296 64.5356 62.4562 64.9241M32.5654 60.7446L29.2362 61.9598M29.2362 61.9598L26.5244 62.7973M29.2362 61.9598C28.5573 60.4741 27.902 58.4693 27.4887 55.9355M29.2362 61.9598C29.8218 63.2416 30.425 64.1369 30.9053 64.6522M31.2673 56.9235L27.4887 55.9355M27.4887 55.9355L24.0531 55.0246M27.4887 55.9355C27.1037 53.5749 26.9287 50.7551 27.1406 47.4682C26.9652 42.0526 27.3099 31.4927 30.0604 32.0952M46.9164 58.2748C47.0375 58.2336 47.1607 58.1853 47.2844 58.1313C48.7933 57.4721 48.1545 56.2077 46.497 56.1841C45.0645 56.1636 44.1128 57.4718 45.4551 57.9956C45.8473 58.1487 46.3298 58.2521 46.9164 58.2748ZM46.9164 58.2748C46.8229 58.2751 47.0042 58.2781 46.9164 58.2748ZM46.9164 58.2748C47.4078 60.4324 45.4049 63.3035 40.7305 61.3056M46.9164 58.2748C47.4078 60.4324 47.4623 62.2892 52.5444 60.9298M30.082 32.1001C30.1282 32.1112 30.1739 32.1324 30.2133 32.1606M30.082 32.1001C30.0937 32.1029 30.0744 32.0961 30.0546 32.0894C30.0306 32.0812 30.037 32.0854 30.0604 32.0952M30.082 32.1001C30.0748 32.0984 30.0676 32.0967 30.0604 32.0952M30.2133 32.1606C30.6005 32.4386 31.573 33.3298 32.8323 35.0325C34.0221 36.6412 35.7096 38.864 36.6314 40.0718M30.2133 32.1606C30.1971 32.149 30.1108 32.1161 30.0604 32.0952M30.9053 64.6522C30.9442 64.694 30.9886 64.726 31.0387 64.7514M30.9053 64.6522C30.9458 64.6957 30.8623 64.6843 30.9179 64.705C30.9681 64.7236 31.0242 64.7441 31.0387 64.7514M31.0387 64.7514C42.8514 70.7646 56.7751 67.4427 62.3388 64.9995M62.3388 64.9995C62.3826 64.9802 62.4204 64.9564 62.4562 64.9241M62.3388 64.9995C62.4013 64.972 62.3083 64.9247 62.3768 64.9283C62.4137 64.9303 62.4482 64.9314 62.4562 64.9241M64.5234 34.1764C64.5167 34.1314 64.5044 34.0886 64.4865 34.0469M64.5234 34.1764C64.5222 34.1678 64.5013 34.153 64.4762 34.137C64.4126 34.0963 64.5162 34.1162 64.4865 34.0469M64.4865 34.0469C63.9205 32.7268 63.3959 32.3945 63.1582 32.387M63.1582 32.387C63.1316 32.3862 63.1065 32.3885 63.0805 32.3909M63.1582 32.387C63.1496 32.3868 63.1132 32.378 63.0754 32.3691C63.0127 32.3543 63.125 32.3873 63.0611 32.3927M63.0805 32.3909C63.0742 32.3915 63.0677 32.3921 63.0611 32.3927M63.0805 32.3909L63.0611 32.3927M63.0611 32.3927C61.7532 32.5032 57.7477 37.4273 55.6385 40.2293M55.6385 40.2293C55.5957 40.2862 55.5435 40.331 55.4858 40.3635M55.6385 40.2293C55.601 40.2792 55.5452 40.3224 55.4858 40.3635M55.4858 40.3635C55.335 40.4677 55.1292 40.4551 54.9741 40.352C54.9698 40.3491 54.9653 40.3461 54.9607 40.3431M55.4858 40.3635C55.3269 40.4529 55.1256 40.4489 54.9607 40.3431M54.9607 40.3431C47.8637 35.7935 40.5116 38.1938 37.3113 40.1984M37.3113 40.1984C37.2858 40.2143 37.2594 40.2279 37.2324 40.2389M37.3113 40.1984C37.2881 40.213 37.2614 40.2263 37.2324 40.2389M37.2324 40.2389C37.2042 40.2511 37.1741 40.2626 37.1429 40.2737C36.9448 40.3443 36.7608 40.2414 36.6314 40.0718M37.2324 40.2389C37.0229 40.3247 36.7776 40.2634 36.6314 40.0718" stroke="black" stroke-linecap="round"/>
</g>
<path d="M9 27.3509C10.13 26.2209 10.71 25.6909 11.89 24.6609C12.9 23.7909 13.8 23.3609 14.53 23.3309C15.26 23.3009 15.88 23.6509 16.4 24.3509C16.51 24.4909 16.56 24.5709 16.67 24.7109C17.01 25.1709 17.19 25.6309 17.21 26.0709C17.23 26.5109 17.09 26.9409 16.79 27.3809C16.8 27.3909 16.8 27.3909 16.81 27.4009C17.9 26.9209 18.82 27.2309 19.56 28.2409C19.79 28.5509 19.9 28.7109 20.13 29.0209C20.64 29.7209 20.81 30.4109 20.66 31.0909C20.51 31.7709 20.06 32.4109 19.29 33.0709C18.32 33.9009 17.84 34.3409 16.92 35.2609C13.75 32.1009 12.17 30.5209 9 27.3509ZM14.66 28.3009C15.02 27.9909 15.23 27.6909 15.3 27.4009C15.37 27.1109 15.27 26.8009 15 26.4709C14.84 26.2809 14.76 26.1809 14.61 25.9909C14.35 25.6809 14.09 25.5109 13.82 25.5009C13.55 25.4909 13.24 25.6309 12.91 25.9209C12.54 26.2409 12.36 26.4009 12 26.7309C12.79 27.6109 13.19 28.0509 13.98 28.9309C14.24 28.6709 14.38 28.5509 14.66 28.3009ZM18.25 31.8609C18.53 31.6209 18.69 31.3809 18.73 31.1409C18.76 30.9009 18.66 30.6209 18.4 30.3009C18.15 30.0009 18.03 29.8409 17.79 29.5409C17.47 29.1409 17.16 28.9409 16.86 28.9309C16.56 28.9209 16.21 29.0909 15.81 29.4309C15.5 29.7009 15.35 29.8309 15.04 30.1109C15.96 31.1309 16.42 31.6409 17.35 32.6609C17.7 32.3309 17.88 32.1709 18.25 31.8609Z" fill="#2E3192"/>
<path d="M22.8498 29.6607C22.1398 29.5407 21.5198 29.1307 21.0098 28.4007C19.6698 26.4607 18.9998 25.5007 17.6598 23.5607C17.1498 22.8207 17.0198 22.0707 17.2898 21.3007C17.5598 20.5307 18.2398 19.8007 19.3098 19.1707C20.3798 18.5407 21.3398 18.3107 22.1398 18.4507C22.9398 18.5907 23.5298 19.0807 23.9198 19.8807C24.9598 21.9907 25.4798 23.0507 26.5298 25.1607C26.9298 25.9607 26.9898 26.7007 26.7598 27.3807C26.5198 28.0507 25.9898 28.6107 25.1598 29.1107C24.3198 29.5807 23.5598 29.7807 22.8498 29.6607ZM24.7198 26.2207C23.5298 24.0807 22.9398 23.0107 21.7498 20.8707C21.3898 20.2307 20.8398 20.1007 20.1098 20.5307C19.3798 20.9607 19.2198 21.5007 19.6098 22.1307C20.8998 24.2107 21.5498 25.2407 22.8398 27.3207C23.2298 27.9407 23.7198 28.0707 24.3298 27.7107C24.9498 27.3507 25.0798 26.8607 24.7198 26.2207Z" fill="#2E3192"/>
<path d="M29.2297 26.1915C28.5597 25.9515 28.0297 25.4315 27.6597 24.6115C26.6797 22.4715 26.1897 21.4015 25.2097 19.2615C24.8397 18.4515 24.8297 17.6815 25.2197 16.9815C25.6097 16.2715 26.3897 15.6815 27.5297 15.2515C28.6697 14.8215 29.6397 14.7715 30.3897 15.0515C31.1397 15.3315 31.6397 15.9115 31.8897 16.7715C32.5497 19.0315 32.8797 20.1615 33.5397 22.4215C33.7897 23.2815 33.7297 24.0215 33.3897 24.6415C33.0497 25.2615 32.4397 25.7215 31.5497 26.0515C30.6597 26.3715 29.8997 26.4315 29.2297 26.1915ZM31.6097 23.1515C30.8097 20.8415 30.4097 19.6815 29.6197 17.3715C29.3797 16.6715 28.8697 16.4615 28.0897 16.7515C27.3097 17.0415 27.0597 17.5415 27.3397 18.2315C28.2497 20.5015 28.7097 21.6315 29.6197 23.9015C29.8897 24.5815 30.3497 24.7915 30.9997 24.5515C31.6397 24.3015 31.8497 23.8415 31.6097 23.1515Z" fill="#2E3192"/>
<path d="M32.7402 13.7809C33.6902 13.5309 34.1702 13.4209 35.1302 13.2209C35.5202 15.0709 35.7102 15.9909 36.0902 17.8409C36.8202 15.7609 37.2402 14.7209 38.2002 12.6809C39.1702 12.5409 39.6602 12.4809 40.6302 12.3809C39.6302 14.1309 39.1802 15.0209 38.3702 16.8109C39.8902 19.4409 40.5702 20.7909 41.7702 23.5209C40.9702 23.6009 40.5702 23.6509 39.7802 23.7609C38.8402 21.8809 38.3402 20.9509 37.2502 19.1209C37.0202 19.7409 36.9002 20.0609 36.6902 20.6809C36.9802 22.0809 37.1302 22.7809 37.4202 24.1709C36.6702 24.3309 36.2902 24.4109 35.5402 24.6109C34.4202 20.2809 33.8602 18.1209 32.7402 13.7809Z" fill="#2E3192"/>
<path d="M42.8996 22.861C42.3796 22.411 42.0796 21.741 41.9996 20.841C41.9796 20.581 41.9696 20.461 41.9396 20.201C42.7196 20.131 43.1096 20.111 43.8996 20.081C43.9096 20.391 43.9196 20.541 43.9296 20.851C43.9596 21.571 44.3196 21.921 44.9996 21.911C45.3396 21.901 45.5896 21.821 45.7696 21.641C45.9496 21.461 46.0396 21.181 46.0396 20.791C46.0396 20.321 45.9196 19.911 45.6696 19.551C45.4196 19.191 44.9396 18.771 44.2196 18.291C43.3096 17.681 42.6296 17.151 42.2296 16.661C41.8296 16.171 41.5896 15.611 41.5296 14.961C41.4496 14.081 41.6896 13.371 42.2796 12.841C42.8596 12.311 43.7596 12.021 44.9496 12.001C46.1196 11.981 47.0096 12.251 47.5896 12.761C48.1696 13.271 48.4196 13.981 48.3696 14.881C48.3596 15.071 48.3596 15.161 48.3496 15.341C47.4796 15.291 47.0496 15.281 46.1796 15.271C46.1796 15.041 46.1796 14.921 46.1896 14.691C46.1896 14.311 46.0996 14.021 45.8996 13.851C45.6996 13.671 45.3996 13.591 45.0096 13.591C44.2196 13.601 43.8396 13.981 43.8596 14.691C43.8796 15.091 44.0296 15.471 44.3296 15.811C44.6196 16.151 45.1396 16.571 45.8696 17.071C46.7896 17.711 47.3896 18.321 47.7096 18.861C48.0196 19.401 48.1496 20.021 48.1096 20.721C48.0596 21.641 47.7596 22.321 47.2396 22.801C46.7196 23.271 46.0096 23.501 45.0696 23.521C44.1196 23.521 43.4096 23.311 42.8996 22.861Z" fill="#2E3192"/>
<path d="M49.9403 12.3008C51.3803 12.4208 52.0903 12.5008 53.5203 12.7108C54.7203 12.8908 55.5803 13.3008 56.0803 13.8808C56.5703 14.4608 56.7103 15.2008 56.5103 16.0808C56.4103 16.5108 56.3603 16.7308 56.2703 17.1608C56.0703 18.0408 55.6503 18.6508 55.0203 19.0008C54.4003 19.3508 53.5703 19.4308 52.5203 19.2708C52.1203 19.2108 51.9203 19.1808 51.5203 19.1308C51.2903 20.9408 51.1703 21.8408 50.9403 23.6508C50.1803 23.5508 49.8003 23.5108 49.0303 23.4508C49.4003 19.0008 49.5803 16.7708 49.9403 12.3008ZM52.7703 17.7008C53.1303 17.7508 53.4103 17.7208 53.6103 17.5908C53.8203 17.4608 53.9503 17.2108 54.0203 16.8308C54.1103 16.3108 54.1603 16.0508 54.2503 15.5208C54.3203 15.1408 54.2703 14.8608 54.1103 14.6708C53.9503 14.4808 53.6703 14.3508 53.2903 14.3008C52.8503 14.2308 52.6203 14.2008 52.1803 14.1408C52.0003 15.5008 51.9203 16.1908 51.7403 17.5508C52.1503 17.6108 52.3503 17.6408 52.7703 17.7008Z" fill="#2E3192"/>
<path d="M59.5098 13.9814C60.7998 14.3314 61.4398 14.5314 62.6998 14.9714C62.2098 19.5414 61.8498 21.8014 60.9298 26.2614C60.2098 25.9714 59.8398 25.8314 59.1098 25.5814C59.2698 24.6914 59.3398 24.2514 59.4898 23.3614C59.4898 23.3714 59.4798 23.3814 59.4798 23.3914C58.5998 23.0914 58.1598 22.9614 57.2598 22.7114C56.8798 23.5214 56.6998 23.9214 56.3298 24.7314C55.6398 24.5414 55.2898 24.4614 54.5898 24.3014C56.3498 20.1014 57.3298 18.0314 59.5098 13.9814ZM59.7298 21.8714C60.0698 19.6514 60.2198 18.5314 60.4598 16.2914C60.4398 16.2814 60.4398 16.2814 60.4198 16.2814C59.3698 18.2814 58.8698 19.2814 57.9098 21.3114C58.6398 21.5214 58.9998 21.6314 59.7298 21.8714Z" fill="#2E3192"/>
<path d="M65.3798 15.9814C66.2698 16.3414 66.7098 16.5314 67.5798 16.9414C66.5398 20.2514 65.9798 21.9014 64.7998 25.1514C64.8098 25.1614 64.8198 25.1614 64.8298 25.1714C66.6998 22.2514 67.6698 20.8114 69.6798 17.9714C70.6498 18.4714 71.1298 18.7414 72.0798 19.3014C70.7398 22.5114 70.0398 24.1014 68.5698 27.2414C68.5798 27.2514 68.5898 27.2514 68.5998 27.2614C70.7398 24.5314 71.8298 23.1914 74.0898 20.5514C74.8198 21.0314 75.1898 21.2814 75.9098 21.7914C72.7698 25.0514 71.2598 26.7314 68.3398 30.1814C67.5098 29.6314 67.0898 29.3714 66.2398 28.8714C67.4498 26.0814 68.0298 24.6714 69.1198 21.8214C69.1098 21.8114 69.0998 21.8114 69.0798 21.8014C67.2498 24.2414 66.3598 25.4814 64.6398 27.9914C63.7198 27.5114 63.2498 27.2814 62.2998 26.8614C63.6598 22.5414 64.2798 20.3714 65.3798 15.9814Z" fill="#2E3192"/>
<path d="M70.8897 31.3015C70.7797 30.6115 70.9897 29.8915 71.5197 29.1615C71.6697 28.9515 71.7497 28.8515 71.8997 28.6515C72.5597 29.1415 72.8897 29.3915 73.5297 29.9215C73.3397 30.1615 73.2397 30.2815 73.0497 30.5215C72.5897 31.0815 72.6497 31.5915 73.1997 32.0615C73.4697 32.2915 73.7297 32.4115 73.9897 32.4015C74.2497 32.3915 74.5097 32.2515 74.7697 31.9515C75.0797 31.6015 75.2597 31.2115 75.2997 30.7615C75.3297 30.3115 75.2397 29.6515 74.9897 28.7915C74.6697 27.7015 74.4997 26.8315 74.4997 26.1815C74.5097 25.5315 74.6897 24.9515 75.0797 24.4315C75.6097 23.7215 76.2697 23.3515 77.0797 23.3615C77.8897 23.3715 78.7897 23.7715 79.7497 24.6015C80.6897 25.4215 81.2297 26.2515 81.3497 27.0415C81.4697 27.8315 81.1997 28.5515 80.5597 29.1915C80.4297 29.3215 80.3597 29.3915 80.2297 29.5215C79.5697 28.8615 79.2297 28.5415 78.5397 27.9115C78.6897 27.7415 78.7697 27.6515 78.9297 27.4815C79.1897 27.2015 79.2997 26.9215 79.2597 26.6415C79.2197 26.3715 79.0397 26.0915 78.7297 25.8215C78.0897 25.2715 77.5397 25.2815 77.0897 25.8415C76.8297 26.1515 76.7097 26.5415 76.7097 27.0115C76.7097 27.4715 76.8497 28.1515 77.0897 29.0415C77.3997 30.1815 77.4697 31.0615 77.3697 31.6915C77.2597 32.3215 76.9497 32.8715 76.4597 33.3715C75.8097 34.0215 75.1197 34.3215 74.3897 34.3015C73.6597 34.2815 72.9397 33.9415 72.1897 33.2915C71.4197 32.6415 70.9997 32.0015 70.8897 31.3015Z" fill="#2E3192"/>
<path d="M25.246 72.8H26.242C26.582 72.8 26.83 72.88 26.986 73.04C27.142 73.196 27.22 73.438 27.22 73.766V73.934C27.22 74.15 27.184 74.326 27.112 74.462C27.044 74.598 26.938 74.696 26.794 74.756V74.768C27.122 74.88 27.286 75.172 27.286 75.644V76.004C27.286 76.328 27.2 76.576 27.028 76.748C26.86 76.916 26.612 77 26.284 77H25.246V72.8ZM26.164 74.51C26.296 74.51 26.394 74.476 26.458 74.408C26.526 74.34 26.56 74.226 26.56 74.066V73.832C26.56 73.68 26.532 73.57 26.476 73.502C26.424 73.434 26.34 73.4 26.224 73.4H25.906V74.51H26.164ZM26.284 76.4C26.4 76.4 26.486 76.37 26.542 76.31C26.598 76.246 26.626 76.138 26.626 75.986V75.62C26.626 75.428 26.592 75.296 26.524 75.224C26.46 75.148 26.352 75.11 26.2 75.11H25.906V76.4H26.284ZM28.6258 77.06C28.3018 77.06 28.0538 76.968 27.8818 76.784C27.7098 76.6 27.6238 76.34 27.6238 76.004V73.796C27.6238 73.46 27.7098 73.2 27.8818 73.016C28.0538 72.832 28.3018 72.74 28.6258 72.74C28.9498 72.74 29.1978 72.832 29.3698 73.016C29.5418 73.2 29.6278 73.46 29.6278 73.796V76.004C29.6278 76.34 29.5418 76.6 29.3698 76.784C29.1978 76.968 28.9498 77.06 28.6258 77.06ZM28.6258 76.46C28.8538 76.46 28.9678 76.322 28.9678 76.046V73.754C28.9678 73.478 28.8538 73.34 28.6258 73.34C28.3978 73.34 28.2838 73.478 28.2838 73.754V76.046C28.2838 76.322 28.3978 76.46 28.6258 76.46ZM31.0281 77.06C30.7041 77.06 30.4561 76.968 30.2841 76.784C30.1121 76.6 30.0261 76.34 30.0261 76.004V73.796C30.0261 73.46 30.1121 73.2 30.2841 73.016C30.4561 72.832 30.7041 72.74 31.0281 72.74C31.3521 72.74 31.6001 72.832 31.7721 73.016C31.9441 73.2 32.0301 73.46 32.0301 73.796V76.004C32.0301 76.34 31.9441 76.6 31.7721 76.784C31.6001 76.968 31.3521 77.06 31.0281 77.06ZM31.0281 76.46C31.2561 76.46 31.3701 76.322 31.3701 76.046V73.754C31.3701 73.478 31.2561 73.34 31.0281 73.34C30.8001 73.34 30.6861 73.478 30.6861 73.754V76.046C30.6861 76.322 30.8001 76.46 31.0281 76.46ZM32.4765 72.8H33.1365V74.57L33.9765 72.8H34.6365L33.8505 74.342L34.6485 77H33.9585L33.4005 75.128L33.1365 75.662V77H32.4765V72.8ZM36.7798 77.06C36.4598 77.06 36.2178 76.97 36.0538 76.79C35.8898 76.606 35.8078 76.344 35.8078 76.004V75.764H36.4318V76.052C36.4318 76.324 36.5458 76.46 36.7738 76.46C36.8858 76.46 36.9698 76.428 37.0258 76.364C37.0858 76.296 37.1158 76.188 37.1158 76.04C37.1158 75.864 37.0758 75.71 36.9958 75.578C36.9158 75.442 36.7678 75.28 36.5518 75.092C36.2798 74.852 36.0898 74.636 35.9818 74.444C35.8738 74.248 35.8198 74.028 35.8198 73.784C35.8198 73.452 35.9038 73.196 36.0718 73.016C36.2398 72.832 36.4838 72.74 36.8038 72.74C37.1198 72.74 37.3578 72.832 37.5178 73.016C37.6818 73.196 37.7638 73.456 37.7638 73.796V73.97H37.1398V73.754C37.1398 73.61 37.1118 73.506 37.0558 73.442C36.9998 73.374 36.9178 73.34 36.8098 73.34C36.5898 73.34 36.4798 73.474 36.4798 73.742C36.4798 73.894 36.5198 74.036 36.5998 74.168C36.6838 74.3 36.8338 74.46 37.0498 74.648C37.3258 74.888 37.5158 75.106 37.6198 75.302C37.7238 75.498 37.7758 75.728 37.7758 75.992C37.7758 76.336 37.6898 76.6 37.5178 76.784C37.3498 76.968 37.1038 77.06 36.7798 77.06ZM38.6702 73.4H37.9802V72.8H40.0202V73.4H39.3302V77H38.6702V73.4ZM41.2703 77.06C40.9463 77.06 40.6983 76.968 40.5263 76.784C40.3543 76.6 40.2683 76.34 40.2683 76.004V73.796C40.2683 73.46 40.3543 73.2 40.5263 73.016C40.6983 72.832 40.9463 72.74 41.2703 72.74C41.5943 72.74 41.8423 72.832 42.0143 73.016C42.1863 73.2 42.2723 73.46 42.2723 73.796V76.004C42.2723 76.34 42.1863 76.6 42.0143 76.784C41.8423 76.968 41.5943 77.06 41.2703 77.06ZM41.2703 76.46C41.4983 76.46 41.6123 76.322 41.6123 76.046V73.754C41.6123 73.478 41.4983 73.34 41.2703 73.34C41.0423 73.34 40.9283 73.478 40.9283 73.754V76.046C40.9283 76.322 41.0423 76.46 41.2703 76.46ZM42.7187 72.8H43.6967C44.0367 72.8 44.2847 72.88 44.4407 73.04C44.5967 73.196 44.6747 73.438 44.6747 73.766V74.024C44.6747 74.46 44.5307 74.736 44.2427 74.852V74.864C44.4027 74.912 44.5147 75.01 44.5787 75.158C44.6467 75.306 44.6807 75.504 44.6807 75.752V76.49C44.6807 76.61 44.6847 76.708 44.6927 76.784C44.7007 76.856 44.7207 76.928 44.7527 77H44.0807C44.0567 76.932 44.0407 76.868 44.0327 76.808C44.0247 76.748 44.0207 76.64 44.0207 76.484V75.716C44.0207 75.524 43.9887 75.39 43.9247 75.314C43.8647 75.238 43.7587 75.2 43.6067 75.2H43.3787V77H42.7187V72.8ZM43.6187 74.6C43.7507 74.6 43.8487 74.566 43.9127 74.498C43.9807 74.43 44.0147 74.316 44.0147 74.156V73.832C44.0147 73.68 43.9867 73.57 43.9307 73.502C43.8787 73.434 43.7947 73.4 43.6787 73.4H43.3787V74.6H43.6187ZM45.6486 72.8H46.5426L47.2266 77H46.5666L46.4466 76.166V76.178H45.6966L45.5766 77H44.9646L45.6486 72.8ZM46.3686 75.608L46.0746 73.532H46.0626L45.7746 75.608H46.3686ZM48.4711 77.06C48.1511 77.06 47.9071 76.97 47.7391 76.79C47.5711 76.606 47.4871 76.344 47.4871 76.004V73.796C47.4871 73.456 47.5711 73.196 47.7391 73.016C47.9071 72.832 48.1511 72.74 48.4711 72.74C48.7911 72.74 49.0351 72.832 49.2031 73.016C49.3711 73.196 49.4551 73.456 49.4551 73.796V74.156H48.8311V73.754C48.8311 73.478 48.7171 73.34 48.4891 73.34C48.2611 73.34 48.1471 73.478 48.1471 73.754V76.052C48.1471 76.324 48.2611 76.46 48.4891 76.46C48.7171 76.46 48.8311 76.324 48.8311 76.052V75.23H48.5011V74.63H49.4551V76.004C49.4551 76.344 49.3711 76.606 49.2031 76.79C49.0351 76.97 48.7911 77.06 48.4711 77.06ZM49.8788 72.8H51.6788V73.4H50.5388V74.51H51.4448V75.11H50.5388V76.4H51.6788V77H49.8788V72.8ZM53.8774 77.06C53.5574 77.06 53.3154 76.97 53.1514 76.79C52.9874 76.606 52.9054 76.344 52.9054 76.004V75.764H53.5294V76.052C53.5294 76.324 53.6434 76.46 53.8714 76.46C53.9834 76.46 54.0674 76.428 54.1234 76.364C54.1834 76.296 54.2134 76.188 54.2134 76.04C54.2134 75.864 54.1734 75.71 54.0934 75.578C54.0134 75.442 53.8654 75.28 53.6494 75.092C53.3774 74.852 53.1874 74.636 53.0794 74.444C52.9714 74.248 52.9174 74.028 52.9174 73.784C52.9174 73.452 53.0014 73.196 53.1694 73.016C53.3374 72.832 53.5814 72.74 53.9014 72.74C54.2174 72.74 54.4554 72.832 54.6154 73.016C54.7794 73.196 54.8614 73.456 54.8614 73.796V73.97H54.2374V73.754C54.2374 73.61 54.2094 73.506 54.1534 73.442C54.0974 73.374 54.0154 73.34 53.9074 73.34C53.6874 73.34 53.5774 73.474 53.5774 73.742C53.5774 73.894 53.6174 74.036 53.6974 74.168C53.7814 74.3 53.9314 74.46 54.1474 74.648C54.4234 74.888 54.6134 75.106 54.7174 75.302C54.8214 75.498 54.8734 75.728 54.8734 75.992C54.8734 76.336 54.7874 76.6 54.6154 76.784C54.4474 76.968 54.2014 77.06 53.8774 77.06ZM55.2519 72.8H57.0519V73.4H55.9119V74.51H56.8179V75.11H55.9119V76.4H57.0519V77H55.2519V72.8ZM57.4315 72.8H58.4095C58.7495 72.8 58.9975 72.88 59.1535 73.04C59.3095 73.196 59.3875 73.438 59.3875 73.766V74.024C59.3875 74.46 59.2435 74.736 58.9555 74.852V74.864C59.1155 74.912 59.2275 75.01 59.2915 75.158C59.3595 75.306 59.3935 75.504 59.3935 75.752V76.49C59.3935 76.61 59.3975 76.708 59.4055 76.784C59.4135 76.856 59.4335 76.928 59.4655 77H58.7935C58.7695 76.932 58.7535 76.868 58.7455 76.808C58.7375 76.748 58.7335 76.64 58.7335 76.484V75.716C58.7335 75.524 58.7015 75.39 58.6375 75.314C58.5775 75.238 58.4715 75.2 58.3195 75.2H58.0915V77H57.4315V72.8ZM58.3315 74.6C58.4635 74.6 58.5615 74.566 58.6255 74.498C58.6935 74.43 58.7275 74.316 58.7275 74.156V73.832C58.7275 73.68 58.6995 73.57 58.6435 73.502C58.5915 73.434 58.5075 73.4 58.3915 73.4H58.0915V74.6H58.3315ZM59.654 72.8H60.32L60.752 76.058H60.764L61.196 72.8H61.802L61.166 77H60.29L59.654 72.8ZM62.119 72.8H62.779V77H62.119V72.8ZM64.2033 77.06C63.8873 77.06 63.6453 76.97 63.4773 76.79C63.3133 76.61 63.2313 76.356 63.2313 76.028V73.772C63.2313 73.444 63.3133 73.19 63.4773 73.01C63.6453 72.83 63.8873 72.74 64.2033 72.74C64.5193 72.74 64.7593 72.83 64.9233 73.01C65.0913 73.19 65.1753 73.444 65.1753 73.772V74.216H64.5513V73.73C64.5513 73.47 64.4413 73.34 64.2213 73.34C64.0013 73.34 63.8913 73.47 63.8913 73.73V76.076C63.8913 76.332 64.0013 76.46 64.2213 76.46C64.4413 76.46 64.5513 76.332 64.5513 76.076V75.434H65.1753V76.028C65.1753 76.356 65.0913 76.61 64.9233 76.79C64.7593 76.97 64.5193 77.06 64.2033 77.06ZM65.5702 72.8H67.3702V73.4H66.2302V74.51H67.1362V75.11H66.2302V76.4H67.3702V77H65.5702V72.8Z" fill="#2E3192"/>
<defs>
<clipPath id="clip0_1043_15">
<rect width="47" height="42" fill="white" transform="translate(17.3721 34.7861) rotate(-14.9754)"/>
</clipPath>
</defs>
</svg>
